<svg xmlns="http://www.w3.org/2000/svg" width="600" height="230" viewBox="0 0 600 230" fill="none">
<style>.run{stroke-dasharray:140 1504;animation:run 8s linear infinite}
@keyframes run{to{stroke-dashoffset:-1644}}
.eq{transform-box:fill-box;transform-origin:center bottom;animation:eq .8s ease-in-out infinite alternate}
@keyframes eq{from{transform:scaleY(.3)}to{transform:scaleY(1)}}</style>
<rect x="2" y="2" width="596" height="226" rx="20" fill="#0a1628" stroke="#14304f" stroke-width="2"/>
<rect x="2" y="2" width="596" height="226" rx="20" stroke="#38bdf8" stroke-width="2" stroke-linecap="round" class="run"/>
<g transform="translate(58 60)"><rect x="-28" y="-28" width="56" height="56" rx="14" fill="#38bdf8" fill-opacity=".1"/><path d="M-18 -14 Q-18 -18 -14 -18 H14 Q18 -18 18 -14 V4 Q18 8 14 8 H-3 L-11 16 V8 H-14 Q-18 8 -18 4 Z" fill="#38bdf8"/><path d="M0 -12 L2 -7 L7 -7 L3 -4 L4.5 1 L0 -2 L-4.5 1 L-3 -4 L-7 -7 L-2 -7 Z" fill="#07111f"/></g>
<text x="104" y="56" font-family="'Segoe UI', Inter, 'Helvetica Neue', Ubuntu, Roboto, Arial, sans-serif" font-size="28" font-weight="700" fill="#f0f9ff">JustDiscord</text>
<text x="104" y="82" font-family="'JetBrains Mono', 'SFMono-Regular', Consolas, 'Liberation Mono', Menlo, monospace" font-size="15" fill="#38bdf8">justdiscord.org</text>
<text x="30" y="128" font-family="'Segoe UI', Inter, 'Helvetica Neue', Ubuntu, Roboto, Arial, sans-serif" font-size="17" fill="#7b93ad">Discord server &amp; bot list built on trust —</text>
<text x="30" y="153" font-family="'Segoe UI', Inter, 'Helvetica Neue', Ubuntu, Roboto, Arial, sans-serif" font-size="17" fill="#7b93ad">real reviews, verified owners, free emojis.</text>
<text x="30" y="200" font-family="'Segoe UI', Inter, 'Helvetica Neue', Ubuntu, Roboto, Arial, sans-serif" font-size="17"><tspan font-weight="700" fill="#bae6fd">16K+</tspan><tspan fill="#7b93ad"> listings</tspan></text>
<text x="210" y="200" font-family="'Segoe UI', Inter, 'Helvetica Neue', Ubuntu, Roboto, Arial, sans-serif" font-size="17"><tspan font-weight="700" fill="#bae6fd">91K</tspan><tspan fill="#7b93ad"> emojis</tspan></text>
</svg>
